<?xml version="1.0" encoding="UTF-8"?>
<svg width="1170px" height="208px" viewBox="0 0 1170 208" version="1.1" xmlns="http://www.w3.org/2000/svg" xmlns:xlink="http://www.w3.org/1999/xlink">
    <!-- Generator: Sketch 55.2 (78181) - https://sketchapp.com -->
    <title>OnlyMargaritas</title>
    <desc>Created with Sketch.</desc>
    <g id="Final" stroke="none" stroke-width="1" fill="none" fill-rule="evenodd">
        <g id="About---Yakkios" transform="translate(-135.000000, -56.000000)" fill="#333333" fill-rule="nonzero">
            <path d="M192.056489,59.5637178 C207.151707,57.2577828 231.471779,61.2407615 248.244243,79.8978723 C267.532577,101.48981 271.725693,132.934378 265.645674,155.993729 C259.775312,178.843449 246.566997,200.854647 221.198645,209.030235 C205.264805,214.270997 180.735076,213.642105 162.704678,199.596865 C137.965293,180.730123 133.352866,148.237402 135.449424,127.693617 C137.545982,105.263158 148.867395,79.6882419 172.348844,66.481523 C178.428862,62.9178052 185.137848,60.6118701 192.056489,59.5637178 Z M157.463283,126.226204 C156.205348,143.625532 155.57638,184.084211 179.05783,200.225756 C189.750275,207.772452 208.828953,206.7243 217.424841,202.950952 C237.971109,193.936842 242.793192,171.506383 244.88975,156.203359 C246.986308,141.948488 249.502178,91.8468085 226.859352,73.3993281 C215.747594,64.1755879 198.765475,63.5466965 188.701997,67.1104143 C162.285366,76.7534155 158.511562,111.342441 157.463283,126.226204 Z M298.954971,102.747592 L302.309464,102.747592 L302.309464,122.872116 L307.341203,119.518029 C321.178486,110.503919 336.483359,100.022396 346.756493,106.10168 C354.723414,110.71355 354.723414,120.566181 354.723414,129.370661 L354.723414,190.582755 C354.723414,195.823516 354.723414,204.627996 361.013087,206.7243 L361.013087,209.659127 L329.355062,209.659127 L329.355062,206.7243 C334.386801,204.837626 335.43508,198.967973 335.43508,190.792385 L335.43508,129.370661 C335.43508,123.710638 334.596457,120.566181 331.45162,119.098768 C324.323323,115.53505 314.888812,121.195073 302.309464,128.532139 L302.309464,189.324972 C302.309464,199.806495 302.938431,203.999104 308.389482,206.933931 L308.389482,209.659127 L276.731457,209.659127 L276.731457,206.7243 C282.392163,204.208735 282.811475,198.967973 282.811475,188.905711 L282.811475,135.659574 C282.811475,128.532139 283.230786,123.920269 275.473522,119.518029 L275.473522,117.002464 C285.117689,113.648376 290.149428,110.503919 298.954971,102.747592 Z M394.112729,188.696081 C394.112729,200.435386 395.161008,204.627996 400.192747,206.7243 L400.192747,209.659127 L368.534721,209.659127 L368.534721,206.7243 C373.56646,204.627996 374.614739,200.435386 374.614739,188.696081 L374.614739,90.1697648 C374.614739,82.4134378 375.243707,77.1726764 367.276786,72.9800672 L367.276786,70.4645017 C376.920953,67.1104143 381.952692,63.9659574 390.758236,56 L394.112729,56 L394.112729,188.696081 Z M404.988855,107.988354 L438.533783,107.988354 L438.533783,110.92318 C430.147551,114.486898 431.615141,120.356551 435.388946,131.886226 L452.790377,186.599776 L469.353185,139.432923 C476.062171,120.566181 473.965613,115.115789 466.62766,110.92318 L466.62766,107.988354 L495.56016,107.988354 L495.56016,110.92318 C487.802895,115.115789 485.496681,119.518029 481.722877,129.580291 L445.242768,229.783651 C440.839996,241.522956 433.921355,260.599328 421.342007,263.534155 C417.148891,264.372676 411.69784,264.372676 408.133692,261.018589 C405.617822,258.712654 404.569543,255.358567 405.198511,251.794849 C405.617822,249.069653 407.085413,246.973348 409.810938,245.715566 C411.907496,244.667413 414.842677,244.457783 417.568203,245.505935 C420.084072,246.554087 421.551663,247.81187 424.277188,247.81187 C426.583402,247.81187 431.405486,247.392609 436.017913,234.605151 L443.984833,212.174692 L416.100612,126.645465 C412.536464,115.115789 411.69784,113.648376 404.988855,110.92318 L404.988855,107.988354 Z M509.109861,63.1274356 L541.60651,63.1274356 L575.570749,180.101232 L607.438431,63.1274356 L638.048177,63.1274356 L638.048177,66.062262 C629.661945,68.1585666 629.661945,73.818589 630.91988,82.8326988 L645.38613,185.551624 C647.063377,196.452408 648.111656,204.627996 657.126855,206.7243 L657.126855,209.659127 L617.711565,209.659127 L617.711565,206.7243 C628.823322,203.160582 627.775043,198.339082 626.097797,186.599776 L611.002579,80.9460246 L574.732126,211.33617 L565.297615,211.33617 L525.882325,83.2519597 L514.141601,174.021948 C512.045043,190.373124 510.367796,199.596865 524.62439,206.7243 L524.62439,209.659127 L489.192561,209.659127 L489.192561,206.7243 C500.933285,203.579843 503.239499,195.194625 505.965024,176.537514 L516.867126,93.9431131 C517.496093,89.1216125 518.125061,83.4615901 518.125061,79.268981 C518.125061,73.6089586 516.867126,68.1585666 509.109861,66.062262 L509.109861,63.1274356 Z M744.317692,201.483539 L746.41425,203.160582 C740.334232,211.755431 733.625246,214.480627 725.658326,213.013214 C721.255554,212.174692 717.691405,209.868757 716.014159,204.418365 C715.594847,202.950952 715.385192,201.483539 714.96588,197.919821 C701.338253,208.401344 684.985101,217.834714 671.56713,211.12654 C662.971242,206.51467 659.826405,198.548712 659.826405,190.582755 C660.036061,168.781187 672.405753,163.750056 694.629268,153.268533 L714.756224,143.835162 L714.756224,134.821053 C714.756224,125.178052 715.385192,113.858007 709.934141,110.294289 C706.160337,107.778723 701.128597,107.569093 696.935481,109.455767 C688.968561,113.019485 690.226496,117.840985 686.243036,128.322508 C684.565789,132.305487 681.420952,134.611422 677.647148,135.030683 C674.711967,135.659574 671.147818,135.030683 668.841605,132.305487 C666.954702,129.999552 666.325735,126.226204 667.374014,122.033595 C669.889884,113.858007 679.53405,108.407615 686.243036,106.31131 C694.209956,103.795745 715.804503,102.118701 726.077637,110.294289 C735.092837,117.421725 734.044558,129.370661 734.044558,138.594401 L734.044558,195.194625 C734.044558,200.225756 734.044558,202.741321 736.770083,204.418365 C739.495608,205.885778 741.801822,204.418365 744.317692,201.483539 Z M684.565789,167.733035 C678.905083,174.231579 677.647148,183.66495 679.53405,191.630907 C681.001641,196.871669 684.356134,200.854647 689.178217,202.11243 C696.096858,204.418365 704.48309,200.435386 714.756224,191.630907 L714.756224,150.333707 C705.112058,153.268533 690.436152,161.02486 684.565789,167.733035 Z M773.224217,102.747592 L776.57871,102.747592 L776.57871,121.614334 C782.868384,113.858007 793.770485,102.747592 802.99534,102.747592 C806.769145,102.747592 810.333293,103.376484 812.639507,107.149832 C814.526409,110.503919 813.47813,116.583203 811.381572,119.518029 C809.285014,122.662486 806.140177,123.710638 801.947061,123.501008 C794.609108,123.081747 788.52909,118.679507 781.610449,124.33953 C775.949742,129.16103 776.57871,135.030683 776.57871,146.979619 L776.57871,189.534602 C776.57871,200.645017 777.836644,204.837626 782.658728,206.7243 L782.658728,209.659127 L751.000702,209.659127 L751.000702,206.7243 C755.403474,204.837626 757.08072,201.483539 757.08072,189.324972 L757.08072,136.707727 C757.08072,129.370661 757.919344,123.920269 749.742768,119.518029 L749.742768,117.002464 C759.177278,114.067637 766.09592,109.455767 773.224217,102.747592 Z M880.54201,117.002464 C888.928242,108.826876 896.05654,103.166853 903.604148,105.053527 C906.748985,105.892049 909.264855,107.778723 910.103478,111.552072 C910.732445,114.067637 910.103478,117.421725 907.587608,119.518029 C905.071739,121.823964 901.297934,122.872116 897.104819,121.195073 C894.169637,119.93729 892.073079,117.840985 890.186177,117.631355 C888.718587,117.421725 886.412373,119.098768 883.686847,121.404703 C891.234456,134.401792 891.0248,148.866293 882.848224,160.81523 C872.784746,175.698992 855.383315,179.891601 843.223278,178.843449 C837.14326,178.633819 835.046702,177.585666 832.321177,176.747144 C830.224619,177.795297 827.289438,179.05308 824.354257,181.987906 C822.048043,184.503471 820.580452,187.857559 821.628731,190.582755 C823.096322,195.194625 831.272898,196.871669 841.965344,199.177604 L866.914384,204.627996 C880.54201,207.562822 893.959982,210.078387 898.572409,222.236954 C901.088279,229.154759 901.297934,239.426652 896.475851,246.344457 C886.622029,260.808959 861.882644,262.905263 851.819166,262.905263 C842.803967,262.905263 814.919746,260.808959 806.323858,248.650392 C803.179021,244.038522 802.759709,237.959239 804.646612,232.928108 C807.791449,224.75252 817.016304,219.092497 825.19288,214.270997 C818.69355,212.384323 808.839728,209.449496 807.372137,198.758343 C806.533514,191.630907 811.145941,185.132363 819.532173,179.26271 C821.419075,178.004927 823.515633,176.537514 828.337717,174.231579 C815.339057,164.798208 810.72663,155.155207 810.936285,142.78701 C810.936285,132.934378 816.387336,119.518029 827.079782,111.761702 C838.191539,103.586114 851.190199,102.747592 862.511612,106.31131 C869.010942,108.197984 874.042681,110.71355 880.54201,117.002464 Z M829.805307,155.574468 C830.853586,162.073012 834.417735,168.990817 841.336376,171.925644 C846.997083,174.65084 854.964003,174.231579 859.786086,170.667861 C869.849565,163.750056 870.059221,140.690705 869.849565,137.755879 C869.639909,131.047704 869.010942,116.792833 859.366775,110.92318 C854.12538,107.778723 846.997083,107.569093 842.174999,109.875028 C827.289438,117.212094 827.918405,146.141097 829.805307,155.574468 Z M822.67701,222.865845 C818.483894,228.735498 817.016304,237.120717 819.741829,243.2 C823.934945,252.843001 834.417735,256.82598 842.594311,257.664502 C852.867445,259.131915 872.365434,259.341545 881.799945,247.81187 C884.944782,244.038522 886.202717,238.168869 884.944782,234.18589 C881.590289,224.333259 865.237137,221.398432 857.270217,220.140649 L847.62605,218.463606 C844.900525,218.044345 833.788767,216.157671 830.014963,215.528779 C827.708749,216.996193 824.773568,219.931019 822.67701,222.865845 Z M988.488771,201.483539 L990.585329,203.160582 C984.505311,211.755431 977.796326,214.480627 969.829405,213.013214 C965.426634,212.174692 961.862485,209.868757 960.185239,204.418365 C959.765927,202.950952 959.556271,201.483539 959.13696,197.919821 C945.509333,208.401344 929.156181,217.834714 915.738209,211.12654 C907.142322,206.51467 903.997485,198.548712 903.997485,190.582755 C904.207141,168.781187 916.576833,163.750056 938.800347,153.268533 L958.927304,143.835162 L958.927304,134.821053 C958.927304,125.178052 959.556271,113.858007 954.105221,110.294289 C950.331416,107.778723 945.299677,107.569093 941.106561,109.455767 C933.139641,113.019485 934.397576,117.840985 930.414115,128.322508 C928.736869,132.305487 925.592032,134.611422 921.818228,135.030683 C918.883046,135.659574 915.318898,135.030683 913.012684,132.305487 C911.125782,129.999552 910.496815,126.226204 911.545094,122.033595 C914.060963,113.858007 923.70513,108.407615 930.414115,106.31131 C938.381036,103.795745 959.975583,102.118701 970.248717,110.294289 C979.263916,117.421725 978.215637,129.370661 978.215637,138.594401 L978.215637,195.194625 C978.215637,200.225756 978.215637,202.741321 980.941163,204.418365 C983.666688,205.885778 985.972902,204.418365 988.488771,201.483539 Z M928.736869,167.733035 C923.076162,174.231579 921.818228,183.66495 923.70513,191.630907 C925.17272,196.871669 928.527213,200.854647 933.349297,202.11243 C940.267938,204.418365 948.65417,200.435386 958.927304,191.630907 L958.927304,150.333707 C949.283137,153.268533 934.607231,161.02486 928.736869,167.733035 Z M1017.3953,102.747592 L1020.74979,102.747592 L1020.74979,121.614334 C1027.03946,113.858007 1037.94156,102.747592 1047.16642,102.747592 C1050.94022,102.747592 1054.50437,103.376484 1056.81059,107.149832 C1058.69749,110.503919 1057.64921,116.583203 1055.55265,119.518029 C1053.45609,122.662486 1050.31126,123.710638 1046.11814,123.501008 C1038.78019,123.081747 1032.70017,118.679507 1025.78153,124.33953 C1020.12082,129.16103 1020.74979,135.030683 1020.74979,146.979619 L1020.74979,189.534602 C1020.74979,200.645017 1022.00772,204.837626 1026.82981,206.7243 L1026.82981,209.659127 L995.171782,209.659127 L995.171782,206.7243 C999.574554,204.837626 1001.2518,201.483539 1001.2518,189.324972 L1001.2518,136.707727 C1001.2518,129.370661 1002.09042,123.920269 993.913847,119.518029 L993.913847,117.002464 C1003.34836,114.067637 1010.267,109.455767 1017.3953,102.747592 Z M1072.29914,59.7733483 C1075.23432,58.725196 1079.84675,58.3059351 1083.20124,60.6118701 C1087.1847,63.5466965 1088.86195,67.3200448 1088.65229,71.7222844 C1088.65229,75.4956327 1087.39436,79.8978723 1082.78193,82.6230683 C1079.84675,84.300112 1075.86329,84.9290034 1072.08948,83.4615901 C1068.31568,81.9941769 1065.17084,78.4304591 1064.33222,74.0282195 C1063.28394,68.5778275 1065.3805,62.0792833 1072.29914,59.7733483 Z M1085.71711,188.696081 C1085.71711,200.435386 1086.76539,204.627996 1091.79713,206.7243 L1091.79713,209.659127 L1060.1391,209.659127 L1060.1391,206.7243 C1065.17084,204.627996 1066.21912,200.435386 1066.21912,188.696081 L1066.21912,136.707727 C1066.21912,129.16103 1066.84809,123.920269 1058.88117,119.518029 L1058.88117,117.002464 C1068.52534,113.648376 1073.55708,110.71355 1082.36262,102.747592 L1085.71711,102.747592 L1085.71711,188.696081 Z M1119.65538,64.1755879 L1124.89677,64.1755879 L1124.89677,107.988354 L1142.50786,107.988354 L1142.50786,115.744681 L1124.89677,115.744681 L1124.89677,182.407167 C1124.89677,190.373124 1124.2678,198.339082 1128.25126,200.435386 C1131.3961,201.9028 1135.1699,201.064278 1139.99199,198.129451 L1142.50786,200.016125 C1137.68577,207.982083 1130.97679,212.384323 1124.05815,213.222844 C1119.44572,213.851736 1113.99467,212.803583 1110.64018,209.659127 C1105.18913,204.837626 1105.39878,197.290929 1105.39878,188.27682 L1105.39878,115.32542 L1093.4484,115.32542 L1093.4484,109.455767 C1110.84983,97.7164614 1117.34916,78.84972 1119.65538,64.1755879 Z M1226.55386,201.483539 L1228.65042,203.160582 C1222.5704,211.755431 1215.86141,214.480627 1207.89449,213.013214 C1203.49172,212.174692 1199.92757,209.868757 1198.25033,204.418365 C1197.83101,202.950952 1197.62136,201.483539 1197.20205,197.919821 C1183.57442,208.401344 1167.22127,217.834714 1153.8033,211.12654 C1145.20741,206.51467 1142.06257,198.548712 1142.06257,190.582755 C1142.27223,168.781187 1154.64192,163.750056 1176.86543,153.268533 L1196.99239,143.835162 L1196.99239,134.821053 C1196.99239,125.178052 1197.62136,113.858007 1192.17031,110.294289 C1188.3965,107.778723 1183.36476,107.569093 1179.17165,109.455767 C1171.20473,113.019485 1172.46266,117.840985 1168.4792,128.322508 C1166.80196,132.305487 1163.65712,134.611422 1159.88331,135.030683 C1156.94813,135.659574 1153.38398,135.030683 1151.07777,132.305487 C1149.19087,129.999552 1148.5619,126.226204 1149.61018,122.033595 C1152.12605,113.858007 1161.77022,108.407615 1168.4792,106.31131 C1176.44612,103.795745 1198.04067,102.118701 1208.3138,110.294289 C1217.329,117.421725 1216.28072,129.370661 1216.28072,138.594401 L1216.28072,195.194625 C1216.28072,200.225756 1216.28072,202.741321 1219.00625,204.418365 C1221.73177,205.885778 1224.03799,204.418365 1226.55386,201.483539 Z M1166.80196,167.733035 C1161.14125,174.231579 1159.88331,183.66495 1161.77022,191.630907 C1163.23781,196.871669 1166.5923,200.854647 1171.41438,202.11243 C1178.33302,204.418365 1186.71926,200.435386 1196.99239,191.630907 L1196.99239,150.333707 C1187.34822,153.268533 1172.67232,161.02486 1166.80196,167.733035 Z M1299.90741,116.163942 L1293.19843,133.56327 L1290.89221,132.934378 C1287.74738,122.662486 1284.81219,112.809854 1273.07147,109.665398 C1268.6687,108.407615 1259.86315,108.197984 1255.04107,112.600224 C1250.6383,116.373572 1248.7514,122.033595 1249.38036,126.645465 C1250.84796,136.707727 1261.5404,141.319597 1271.39422,145.931467 L1278.31286,149.285554 C1294.45636,157.251512 1304.10053,164.169317 1304.93915,179.891601 C1305.56812,188.48645 1301.375,200.645017 1289.84393,207.982083 C1280.40942,213.851736 1270.5556,214.480627 1259.6535,212.174692 C1249.59002,210.288018 1240.99413,205.256887 1231.97893,198.967973 L1239.31689,178.633819 L1241.83276,179.05308 C1244.76794,191.002016 1251.47692,202.950952 1264.05627,207.143561 C1270.34594,209.030235 1278.31286,209.030235 1283.97357,204.208735 C1289.00531,199.806495 1290.68256,193.727212 1290.05359,188.27682 C1288.79565,178.004927 1280.82873,173.393057 1267.83007,166.475252 L1263.21765,164.169317 C1246.23553,155.364838 1237.8493,150.543337 1236.59136,135.030683 C1235.75274,125.597312 1239.52654,115.744681 1250.84796,108.826876 C1262.16937,101.909071 1278.31286,103.166853 1291.73084,110.503919 C1295.29498,112.600224 1296.97223,113.648376 1299.90741,116.163942 Z" id="OnlyMargaritas"></path>
        </g>
    </g>
</svg>